<?xml version="1.0" encoding="UTF-8"?>
<svg width="34px" height="34px" viewBox="0 0 34 34" version="1.1" xmlns="http://www.w3.org/2000/svg" xmlns:xlink="http://www.w3.org/1999/xlink">
    <!-- Generator: Sketch 51.3 (57544) - http://www.bohemiancoding.com/sketch -->
    <title>flaticon1518106309-svg copy</title>
    <desc>Created with Sketch.</desc>
    <defs></defs>
    <g id="Page-1" stroke="none" stroke-width="1" fill="none" fill-rule="evenodd">
        <g id="Artboard" transform="translate(-857.000000, -361.000000)" fill="#F7F7F7" fill-rule="nonzero" stroke="#F7F7F7">
            <g id="flaticon1518106309-svg-copy" transform="translate(873.970563, 377.970563) rotate(45.000000) translate(-873.970563, -377.970563) translate(861.970563, 365.970563)">
                <path d="M13.9919205,11.999701 L23.5872497,2.40408166 C24.1375834,1.85372904 24.1375834,0.961979748 23.5872497,0.412803683 C23.0380533,-0.137548936 22.1463738,-0.137548936 21.5960401,0.412803683 L12.0007108,10.008423 L2.40310698,0.412764464 C1.85391054,-0.137588155 0.961054548,-0.137588155 0.411897328,0.412764464 C-0.137299109,0.961979748 -0.137299109,1.85372904 0.411897328,2.40404244 L10.0083639,11.999701 L0.411897328,21.596536 C-0.137299109,22.1457513 -0.137299109,23.0386379 0.411897328,23.587814 C0.687044586,23.8630099 1.04784202,24 1.40750215,24 C1.76829958,24 2.12795972,23.8630099 2.40310698,23.587814 L11.9995735,13.9910182 L21.5948635,23.587814 C21.87005,23.8630099 22.2308474,24 22.5905076,24 C22.9512658,24 23.3120632,23.8630099 23.5861124,23.587814 C24.1364461,23.0374614 24.1364461,22.1457121 23.5861124,21.596536 L13.9919205,11.999701 Z" id="Shape"></path>
            </g>
        </g>
    </g>
</svg>