<?xml version="1.0" encoding="utf-8"?>
<!-- Generator: Adobe Illustrator 22.0.0, SVG Export Plug-In . SVG Version: 6.00 Build 0)  -->
<svg version="1.1" id="Calque_1" xmlns="http://www.w3.org/2000/svg" xmlns:xlink="http://www.w3.org/1999/xlink" x="0px" y="0px"
	 viewBox="0 0 184.9 184.9" style="enable-background:new 0 0 184.9 184.9;" xml:space="preserve">
<style type="text/css">
	.st0{fill:none;}
	.st1{fill:#FFFFFF;}
</style>
<rect x="16.6" y="16.9" class="st0" width="152.1" height="152.1"/>
<path id="Fill-4_1_" class="st1" d="M143.9,66.3h-1.5c-2-7.2-11.9-25.7-19-26.7c-3.8-0.5-8.5-0.7-12.6-0.7h-7.2v98.4
	c0,3.6,1.3,6.5,5.1,8.2c2,0.8,10.3,2,13.3,2.1v1.2H63.5v-1.2c2.9-0.2,11.1-1,13.3-1.8c3.9-1.5,5.1-4.6,5.1-8.2V39h-7
	c-3.8,0-9,0.2-12.6,0.7c-7,1-17.2,19.5-19.1,26.7h-1.5V37h102.3L143.9,66.3"/>
</svg>
