<?xml version="1.0" encoding="UTF-8"?>
<svg width="15px" height="12px" viewBox="0 0 15 12" version="1.1" xmlns="http://www.w3.org/2000/svg" xmlns:xlink="http://www.w3.org/1999/xlink">
    <!-- Generator: Sketch 51.3 (57544) - http://www.bohemiancoding.com/sketch -->
    <title>flaticon1542709457-svg</title>
    <desc>Created with Sketch.</desc>
    <defs></defs>
    <g id="Page-1" stroke="none" stroke-width="1" fill="none" fill-rule="evenodd" opacity="0.396595982">
        <g id="Artboard" transform="translate(-575.000000, -128.000000)" fill="#F7F7F7" fill-rule="nonzero">
            <g id="flaticon1542709457-svg" transform="translate(575.000000, 128.000000)">
                <path d="M1.60599609,4.30661133 C1.15980469,4.30661133 0.780673828,4.46267578 0.468339844,4.77498047 C0.156152344,5.08716797 0,5.46629883 0,5.91249023 C0,6.35847656 0.156152344,6.7378418 0.468457031,7.05008789 C0.780761719,7.36227539 1.15998047,7.51836914 1.60611328,7.51836914 C2.0521582,7.51836914 2.43131836,7.36227539 2.74365234,7.05008789 C3.05586914,6.73787109 3.21202148,6.35850586 3.21202148,5.91249023 C3.21202148,5.46629883 3.05586914,5.08716797 2.74356445,4.77495117 C2.43131836,4.46276367 2.05212891,4.30661133 1.60599609,4.30661133 Z" id="Shape"></path>
                <path d="M1.60608398,0.0239355469 C1.15989258,0.0239355469 0.780761719,0.180087891 0.468427734,0.492304688 C0.156240234,0.804609375 8.7890625e-05,1.18374023 8.7890625e-05,1.62984375 C8.7890625e-05,2.07600586 0.156152344,2.45516602 0.468427734,2.7674707 C0.780732422,3.0796875 1.15995117,3.23578125 1.60608398,3.23578125 C2.05212891,3.23578125 2.43128906,3.0796582 2.74362305,2.7674707 C3.05583984,2.45516602 3.21199219,2.07597656 3.21199219,1.62984375 C3.21199219,1.18374023 3.05583984,0.804609375 2.74362305,0.492304688 C2.43143555,0.180087891 2.05227539,0.0239355469 1.60608398,0.0239355469 Z" id="Shape"></path>
                <path d="M1.60608398,8.58925781 C1.15989258,8.58925781 0.780644531,8.74526367 0.468427734,9.05745117 C0.156240234,9.36984375 8.7890625e-05,9.7490332 8.7890625e-05,10.1949902 C8.7890625e-05,10.6413281 0.156152344,11.0203125 0.468427734,11.3327051 C0.780732422,11.6449219 1.15995117,11.8010156 1.60608398,11.8010156 C2.05212891,11.8010156 2.43128906,11.6449219 2.74362305,11.3327051 C3.05583984,11.0203125 3.21199219,10.6413281 3.21199219,10.1949902 C3.21199219,9.74900391 3.05583984,9.36963867 2.74362305,9.05745117 C2.43143555,8.74526367 2.05227539,8.58925781 1.60608398,8.58925781 Z" id="Shape"></path>
                <path d="M14.9096777,0.638671875 C14.8565625,0.585849609 14.7939844,0.559335937 14.7213867,0.559335937 L4.55018555,0.559335937 C4.47773438,0.559335937 4.41498047,0.585761719 4.36201172,0.638671875 C4.30907227,0.691757812 4.28255859,0.754365234 4.28255859,0.826845703 L4.28255859,2.43292969 C4.28255859,2.50543945 4.30907227,2.56801758 4.36201172,2.62113281 C4.41500977,2.67401367 4.47776367,2.70046875 4.55018555,2.70046875 L14.7213867,2.70046875 C14.7939844,2.70046875 14.8566211,2.67410156 14.9096777,2.62113281 C14.9627051,2.56804687 14.9890723,2.50543945 14.9890723,2.43292969 L14.9890723,0.826875 C14.989043,0.754394531 14.9625879,0.691669922 14.9096777,0.638671875 Z" id="Shape"></path>
                <path d="M14.7213867,4.84192383 L4.55018555,4.84192383 C4.47773438,4.84192383 4.41498047,4.86829102 4.36201172,4.92137695 C4.30907227,4.97431641 4.28255859,5.03707031 4.28255859,5.10955078 L4.28255859,6.71557617 C4.28255859,6.78799805 4.30907227,6.85072266 4.36201172,6.90369141 C4.41500977,6.95680664 4.47776367,6.98320312 4.55018555,6.98320312 L14.7213867,6.98320312 C14.7939844,6.98320312 14.8566211,6.95683594 14.9096777,6.90369141 C14.9627051,6.85072266 14.9890723,6.78799805 14.9890723,6.71557617 L14.9890723,5.10955078 C14.9890723,5.03707031 14.9626172,4.97419922 14.9096777,4.92137695 C14.8565332,4.8684082 14.7939551,4.84192383 14.7213867,4.84192383 Z" id="Shape"></path>
                <path d="M14.7213867,9.12442383 L4.55018555,9.12442383 C4.47773438,9.12442383 4.41498047,9.15087891 4.36201172,9.20393555 C4.30907227,9.25696289 4.28255859,9.31962891 4.28255859,9.39202148 L4.28255859,10.9980469 C4.28255859,11.0706445 4.30907227,11.1332812 4.36201172,11.1863379 C4.41500977,11.2392773 4.47776367,11.2656445 4.55018555,11.2656445 L14.7213867,11.2656445 C14.7939844,11.2656445 14.8566211,11.2392773 14.9096777,11.1863379 C14.9627051,11.1332812 14.9890723,11.0706445 14.9890723,10.9980469 L14.9890723,9.39202148 C14.9890723,9.31962891 14.9626172,9.25675781 14.9096777,9.20393555 C14.8565332,9.15108398 14.7939551,9.12442383 14.7213867,9.12442383 Z" id="Shape"></path>
            </g>
        </g>
    </g>
</svg>