<?xml version="1.0" encoding="utf-8"?>
<!-- Generator: Adobe Illustrator 22.0.0, SVG Export Plug-In . SVG Version: 6.00 Build 0)  -->
<svg version="1.1" id="Calque_1" xmlns="http://www.w3.org/2000/svg" xmlns:xlink="http://www.w3.org/1999/xlink" x="0px" y="0px"
	 viewBox="0 0 690.3 619.9" style="enable-background:new 0 0 690.3 619.9;" xml:space="preserve">
<style type="text/css">
	.st0{opacity:0.15;fill:#3D4552;}
	.st1{opacity:0.15;}
	.st2{fill:#F7F7F7;}
	.st3{fill:none;}
</style>
<rect x="160.3" y="65.6" class="st0" width="368.1" height="288.5"/>
<g class="st1">
	<path class="st2" d="M528.7,58.8H159.6c-3.6,0-6.6,3-6.6,6.6v290c0,3.6,3,6.6,6.6,6.6h369.1c3.6,0,6.6-3,6.6-6.6v-290
		C535.3,61.8,532.3,58.8,528.7,58.8z M522.1,348.8H166.2V72h355.9V348.8z"/>
	<circle class="st3" cx="257.9" cy="167.7" r="31.9"/>
	<path class="st2" d="M258.5,204.7c20.3,0,36.7-16.5,36.7-36.7c0-20.3-16.5-36.7-36.7-36.7s-36.7,16.5-36.7,36.7
		S238.2,204.7,258.5,204.7z M258.5,144.5c13,0,23.5,10.6,23.5,23.5c0,13-10.6,23.5-23.5,23.5c-13,0-23.5-10.6-23.5-23.5
		C234.9,155.1,245.5,144.5,258.5,144.5z"/>
	<path class="st2" d="M199.2,322.5c1.6,0,3.1-0.5,4.3-1.6L311,226.2l67.9,67.9c2.6,2.6,6.8,2.6,9.3,0c2.6-2.6,2.6-6.8,0-9.4
		l-31.7-31.7l60.5-66.3l74.2,68c2.7,2.5,6.9,2.3,9.3-0.4c2.5-2.7,2.3-6.9-0.4-9.3l-79-72.6c-1.3-1.2-3-1.7-4.8-1.7
		c-1.7,0.1-3.4,0.8-4.6,2.2l-64.5,70.7l-31.2-31.2c-2.5-2.5-6.4-2.6-9-0.3l-112.2,98.8c-2.7,2.4-3,6.6-0.6,9.3
		C195.5,321.7,197.3,322.5,199.2,322.5z"/>
</g>
</svg>
