<?xml version="1.0" encoding="UTF-8"?>
<svg width="24px" height="24px" viewBox="0 0 24 24" version="1.1" xmlns="http://www.w3.org/2000/svg" xmlns:xlink="http://www.w3.org/1999/xlink">
    <!-- Generator: Sketch 51.3 (57544) - http://www.bohemiancoding.com/sketch -->
    <title>flaticon1518103531-svg</title>
    <desc>Created with Sketch.</desc>
    <defs></defs>
    <g id="Page-1" stroke="none" stroke-width="1" fill="none" fill-rule="evenodd" opacity="0.390738225">
        <g id="Artboard" transform="translate(-1109.000000, -120.000000)" fill="#F7F7F7" fill-rule="nonzero">
            <g id="Group-2" transform="translate(822.000000, 103.000000)">
                <g id="flaticon1518103531-svg" transform="translate(287.000000, 17.000000)">
                    <path d="M23.4596471,20.8466714 L19.1231765,16.5116166 C20.3119608,14.8079403 21.0144706,12.7410029 21.0144706,10.507396 C21.0144706,4.70431601 16.3102353,0 10.5072549,0 C4.70427451,0 0,4.70431601 0,10.507396 C0,16.3104759 4.70423529,21.0147919 10.5072157,21.0147919 C12.7407843,21.0147919 14.8076863,20.3123093 16.5113333,19.1234654 L20.8463137,23.4585201 C21.5683137,24.1804933 22.7376471,24.1804933 23.4596471,23.4585201 C24.1801176,22.737998 24.1801176,21.5686838 23.4596471,20.8466714 Z M10.5072157,18.012662 C6.36286275,18.012662 3.00207843,14.65182 3.00207843,10.507396 C3.00207843,6.36297191 6.36290196,3.00212994 10.5072157,3.00212994 C14.6515686,3.00212994 18.0123529,6.36301113 18.0123529,10.507396 C18.0123529,14.65182 14.6515686,18.012662 10.5072157,18.012662 Z" id="Shape"></path>
                </g>
            </g>
        </g>
    </g>
</svg>