<?xml version="1.0" encoding="utf-8"?>
<!-- Generator: Adobe Illustrator 22.0.0, SVG Export Plug-In . SVG Version: 6.00 Build 0)  -->
<svg version="1.1" id="Calque_1" xmlns="http://www.w3.org/2000/svg" xmlns:xlink="http://www.w3.org/1999/xlink" x="0px" y="0px"
	 viewBox="0 0 690.3 532.7" style="enable-background:new 0 0 690.3 532.7;" xml:space="preserve">
<style type="text/css">
	.st0{fill:#37404D;}
	.st1{fill:#252E3A;}
	.st2{clip-path:url(#SVGID_2_);fill:#595F66;}
	.st3{clip-path:url(#SVGID_6_);fill:#252E3A;}
	.st4{clip-path:url(#SVGID_8_);fill:#252E3A;}
	.st5{clip-path:url(#SVGID_10_);fill:#252E3A;}
	.st6{clip-path:url(#SVGID_12_);fill:#252E3A;}
	.st7{clip-path:url(#SVGID_18_);fill:#252E3A;}
	.st8{clip-path:url(#SVGID_20_);fill:#252E3A;}
	.st9{clip-path:url(#SVGID_22_);fill:#252E3A;}
	.st10{clip-path:url(#SVGID_24_);fill:#252E3A;}
	.st11{fill:#808589;}
</style>
<polygon class="st0" points="70.8,123.6 113.8,95.6 156.8,86.6 253.8,84.6 392.8,86.6 428.8,99.6 479.8,136.6 509.8,190.6 
	517.8,244.6 508.8,352.6 490.8,403.6 454.8,439.6 411.8,461.6 363.8,472.6 240.8,471.6 140.8,466.6 103.8,448.6 58.8,413.6 
	27.8,363.6 23.8,306.6 23.8,200.6 70.8,125.6 "/>
<g>
	<path class="st1" d="M515.5,454.7c-6.2,0-22.8-1.2-35.9-13.2c-10.8-10-10.8-7.7-10.8-26.8l13-7c0,14.6,0.3,15.6,7.9,22.7
		c11,10.3,26.9,9.3,27,9.3l0.5,0l0.5,0c0.1,0,13.8,0.5,23.8-9c7.4-7.1,11.2-18.2,11.2-33c0-18.6,5.4-33.1,16-43.1
		c14.5-13.8,33.8-14,37.3-13.9c3.6-0.2,23.7-0.7,38.9,13.1c10.9,10,16.5,24.8,16.5,43.9h-15c0-14.7-3.9-25.8-11.6-32.8
		c-11.3-10.4-27.8-9.2-27.9-9.2l-0.5,0l-0.5,0c-0.1,0-15.9-0.6-26.8,9.9c-7.4,7.1-11.2,17.9-11.2,32.1c0,19.2-5.4,34-16,44.1
		c-13.6,12.8-31,13.1-34.3,13C517,454.6,516.4,454.7,515.5,454.7z"/>
	<path class="st1" d="M658.9,434.6c-0.9,0-1.8,0-2.7,0c-1.9,0-3.8,0-5.7,0c-8.4,0.1-16.4,0.1-21.8-5.3c-3.2-3.2-4.8-7.6-4.8-13.2
		c0-16.3,13.2-29.5,29.5-29.5s29.5,13.2,29.5,29.5c0,5.6-1.6,10-4.8,13.2C673.1,434.2,666.3,434.6,658.9,434.6z M653.3,401.6
		c-8,0-14.5,6.5-14.5,14.5c0,2,0.4,2.6,0.4,2.6c1.2,1,7.4,1,11.1,1c1.9,0,4,0,5.9,0c3.7,0,10,0.1,11.2-1l0,0c0,0,0.4-0.6,0.4-2.5
		C667.8,408.1,661.3,401.6,653.3,401.6z"/>
	<path class="st1" d="M641.8,450.6c-2.8,0-5-2.2-5-5v-15c0-2.8,2.2-5,5-5s5,2.2,5,5v15C646.8,448.4,644.6,450.6,641.8,450.6z"/>
	<path class="st1" d="M664.8,450.6c-2.8,0-5-2.2-5-5v-15c0-2.8,2.2-5,5-5s5,2.2,5,5v15C669.8,448.4,667.6,450.6,664.8,450.6z"/>
</g>
<g>
	<defs>
		<path id="SVGID_1_" d="M258.1,126.9h-59.8c-71.4,0-129.5,58.1-129.5,129.5v39.8c0,71.4,58.1,129.5,129.5,129.5h59.8
			c71.4,0,129.5-58.1,129.5-129.5v-39.8C387.5,185,329.4,126.9,258.1,126.9z"/>
	</defs>
	<clipPath id="SVGID_2_">
		<use xlink:href="#SVGID_1_"  style="overflow:visible;"/>
	</clipPath>
	<rect x="75.4" y="132.8" class="st2" width="305.5" height="287"/>
</g>
<g>
	<defs>
		<path id="SVGID_3_" d="M462.9,372.3c0,11.8-9.6,21.3-21.3,21.3c-11.8,0-21.3-9.6-21.3-21.3c0-11.8,9.6-21.3,21.3-21.3
			C453.3,351,462.9,360.5,462.9,372.3z"/>
	</defs>
	<clipPath id="SVGID_4_">
		<use xlink:href="#SVGID_3_"  style="overflow:visible;"/>
	</clipPath>
</g>
<g>
	<defs>
		<path id="SVGID_5_" d="M174.9,95C98.4,95,36.2,157.2,36.2,233.6V319c0,76.5,62.2,138.7,138.7,138.7h192
			c76.5,0,138.7-62.2,138.7-138.7v-85.3c0-76.5-62.2-138.7-138.7-138.7H174.9z M366.9,479h-192c-88.2,0-160-71.8-160-160v-85.3
			c0-88.2,71.8-160,160-160h192c88.2,0,160,71.8,160,160V319C526.9,407.2,455.1,479,366.9,479z"/>
	</defs>
	<use xlink:href="#SVGID_5_"  style="overflow:visible;fill:#252E3A;"/>
	<clipPath id="SVGID_6_">
		<use xlink:href="#SVGID_5_"  style="overflow:visible;"/>
	</clipPath>
	<rect x="9.9" y="68.6" class="st3" width="522" height="415.3"/>
</g>
<g>
	<defs>
		<path id="SVGID_7_" d="M196.2,137.6c-64.7,0-117.3,52.7-117.3,117.3v42.7c0,64.7,52.6,117.3,117.3,117.3h64
			c64.7,0,117.3-52.7,117.3-117.3V255c0-64.7-52.6-117.3-117.3-117.3H196.2z M260.2,436.3h-64c-76.5,0-138.7-62.2-138.7-138.7V255
			c0-76.5,62.2-138.7,138.7-138.7h64c76.5,0,138.7,62.2,138.7,138.7v42.7C398.9,374.1,336.6,436.3,260.2,436.3z"/>
	</defs>
	<clipPath id="SVGID_8_">
		<use xlink:href="#SVGID_7_"  style="overflow:visible;"/>
	</clipPath>
	<rect x="52.5" y="111.3" class="st4" width="351.3" height="330"/>
</g>
<g>
	<defs>
		<path id="SVGID_9_" d="M441.5,201.6c-11.8,0-21.3-9.6-21.3-21.3c0-11.8,9.6-21.3,21.3-21.3c11.8,0,21.3,9.6,21.3,21.3
			C462.9,192.1,453.3,201.6,441.5,201.6z"/>
	</defs>
	<use xlink:href="#SVGID_9_"  style="overflow:visible;fill:#252E3A;"/>
	<clipPath id="SVGID_10_">
		<use xlink:href="#SVGID_9_"  style="overflow:visible;"/>
	</clipPath>
	<rect x="415.2" y="154" class="st5" width="52.7" height="52.7"/>
</g>
<g>
	<defs>
		<path id="SVGID_11_" d="M441.5,393.6c-11.8,0-21.3-9.6-21.3-21.3c0-11.8,9.6-21.3,21.3-21.3c11.8,0,21.3,9.6,21.3,21.3
			C462.9,384.1,453.3,393.6,441.5,393.6z"/>
	</defs>
	<use xlink:href="#SVGID_11_"  style="overflow:visible;fill:#252E3A;"/>
	<clipPath id="SVGID_12_">
		<use xlink:href="#SVGID_11_"  style="overflow:visible;"/>
	</clipPath>
	<rect x="415.2" y="346" class="st6" width="52.7" height="52.7"/>
</g>
<g>
	<defs>
		<path id="SVGID_13_" d="M473.5,265.6h-42.7c-5.9,0-10.7-4.8-10.7-10.7c0-5.9,4.8-10.7,10.7-10.7h42.7c5.9,0,10.7,4.8,10.7,10.7
			C484.2,260.8,479.4,265.6,473.5,265.6z"/>
	</defs>
	<use xlink:href="#SVGID_13_"  style="overflow:visible;fill:#252E3A;"/>
	<clipPath id="SVGID_14_">
		<use xlink:href="#SVGID_13_"  style="overflow:visible;"/>
	</clipPath>
</g>
<g>
	<defs>
		<path id="SVGID_15_" d="M473.5,308.3h-42.7c-5.9,0-10.7-4.8-10.7-10.7c0-5.9,4.8-10.7,10.7-10.7h42.7c5.9,0,10.7,4.8,10.7,10.7
			C484.2,303.5,479.4,308.3,473.5,308.3z"/>
	</defs>
	<use xlink:href="#SVGID_15_"  style="overflow:visible;fill:#252E3A;"/>
	<clipPath id="SVGID_16_">
		<use xlink:href="#SVGID_15_"  style="overflow:visible;"/>
	</clipPath>
</g>
<g>
	<defs>
		<path id="SVGID_17_" d="M110.9,521.6c-1.6,0-3.2-0.4-4.8-1.1c-5.3-2.6-7.4-9-4.8-14.3l21.3-42.7c2.7-5.2,9-7.4,14.3-4.8
			c5.3,2.6,7.4,9,4.8,14.3l-21.3,42.7C118.5,519.4,114.8,521.6,110.9,521.6z"/>
	</defs>
	<use xlink:href="#SVGID_17_"  style="overflow:visible;fill:#252E3A;"/>
	<clipPath id="SVGID_18_">
		<use xlink:href="#SVGID_17_"  style="overflow:visible;"/>
	</clipPath>
	<rect x="95.2" y="452.6" class="st7" width="52.7" height="74"/>
</g>
<g>
	<defs>
		<path id="SVGID_19_" d="M430.9,521.6c-3.9,0-7.7-2.2-9.6-5.9L400,473.1c-2.6-5.3-0.5-11.7,4.8-14.3c5.3-2.7,11.7-0.5,14.3,4.8
			l21.3,42.7c2.6,5.3,0.5,11.7-4.8,14.3C434.1,521.3,432.5,521.6,430.9,521.6z"/>
	</defs>
	<use xlink:href="#SVGID_19_"  style="overflow:visible;fill:#252E3A;"/>
	<clipPath id="SVGID_20_">
		<use xlink:href="#SVGID_19_"  style="overflow:visible;"/>
	</clipPath>
	<rect x="393.8" y="452.6" class="st8" width="52.7" height="74"/>
</g>
<g>
	<defs>
		<path id="SVGID_21_" d="M260.6,87.2c-1.6-5.7,1.7-11.6,7.3-13.2l224-64c5.7-1.7,11.6,1.6,13.2,7.3c1.6,5.7-1.7,11.6-7.3,13.2
			l-224,64c-1,0.3-2,0.4-2.9,0.4C266.2,95,262,91.9,260.6,87.2z"/>
	</defs>
	<use xlink:href="#SVGID_21_"  style="overflow:visible;fill:#252E3A;"/>
	<clipPath id="SVGID_22_">
		<use xlink:href="#SVGID_21_"  style="overflow:visible;"/>
	</clipPath>
	<rect x="255.2" y="4.6" class="st9" width="255.4" height="95.3"/>
</g>
<g>
	<defs>
		<path id="SVGID_23_" d="M270.9,95c-1.6,0-3.2-0.4-4.8-1.1L159.4,40.5c-5.3-2.6-7.4-9-4.8-14.3c2.6-5.2,9-7.4,14.3-4.8l106.7,53.3
			c5.3,2.6,7.4,9,4.8,14.3C278.5,92.8,274.8,95,270.9,95z"/>
	</defs>
	<use xlink:href="#SVGID_23_"  style="overflow:visible;fill:#252E3A;"/>
	<clipPath id="SVGID_24_">
		<use xlink:href="#SVGID_23_"  style="overflow:visible;"/>
	</clipPath>
	<rect x="148.5" y="15.3" class="st10" width="138" height="84.7"/>
</g>
<g>
	<g>
		<path class="st11" d="M274.6,257.8c-0.4-0.9-1.3-1.5-2.3-1.5h-30l29.6-46.7c0.5-0.8,0.5-1.8,0.1-2.6c-0.4-0.8-1.3-1.3-2.2-1.3
			h-40.5c-1,0-1.8,0.5-2.3,1.4L189.1,283c-0.4,0.8-0.3,1.7,0.1,2.5c0.5,0.7,1.3,1.2,2.2,1.2h26L189,354c-0.5,1.2-0.1,2.5,1,3.1
			c0.4,0.3,0.9,0.4,1.3,0.4c0.7,0,1.4-0.3,1.9-0.9l80.9-96.1C274.9,259.7,275,258.7,274.6,257.8z"/>
	</g>
</g>
</svg>
