<?xml version="1.0" encoding="utf-8"?>
<!-- Generator: Adobe Illustrator 22.0.0, SVG Export Plug-In . SVG Version: 6.00 Build 0)  -->
<svg version="1.1" id="Calque_1" xmlns="http://www.w3.org/2000/svg" xmlns:xlink="http://www.w3.org/1999/xlink" x="0px" y="0px"
	 viewBox="0 0 162.6 24.7" style="enable-background:new 0 0 162.6 24.7;" xml:space="preserve">
<style type="text/css">
	.st0{fill:#28303F;}
</style>
<g id="Page-1">
	<g id="logo">
		<path id="Fill-2" class="st0" d="M20.5,17.1L20.1,24H0.2v-0.2c0.6,0,2-0.2,2.5-0.4c0.8-0.3,1-0.9,1-1.7V3.3c0-0.7-0.2-1.3-1-1.7
			C2.1,1.3,0.8,1.2,0.2,1.2V0.9h11.5v0.2c-0.6,0-1.8,0.1-2.4,0.3c-0.8,0.3-1,0.9-1,1.7v17.4c0,2.7,0.6,3,3.8,3
			c2.1,0,3.9-0.1,4.7-0.8c1-1.1,2.9-4.3,3.5-5.7L20.5,17.1"/>
		<path id="Fill-3" class="st0" d="M20.9,24v-0.2c0.8,0,2.1-0.2,2.5-0.4c0.8-0.3,1-0.8,1-1.6V3.3c0-0.7-0.2-1.4-1-1.7
			c-0.6-0.2-1.8-0.4-2.5-0.4V0.9h19v5.6h-0.3C39.1,5,37,1.7,35.4,1.5c-0.8-0.1-2.1-0.2-3.2-0.2h-3.3v10.5h2.8c1.9,0,2.5-0.6,2.9-1
			c0.6-0.6,1.3-2.5,1.4-3.4h0.3v9.5h-0.3c-0.1-1-0.9-3.1-1.4-3.6c-0.4-0.5-1.1-1-2.9-1h-2.8v8.4c0,2.6,0.6,3,3.8,3
			c2.1,0,4.4,0,5.2-0.8c1.2-1.2,3-4.5,3.5-5.6h0.3L41.2,24L20.9,24"/>
		<path id="Fill-4" class="st0" d="M70.5,7h-0.3c-0.4-1.5-2.5-5.3-3.9-5.5c-0.8-0.1-1.8-0.1-2.6-0.1h-1.5v20.3c0,0.7,0.3,1.3,1,1.7
			c0.4,0.2,2.1,0.4,2.7,0.4V24h-12v-0.2c0.6,0,2.3-0.2,2.7-0.4c0.8-0.3,1-0.9,1-1.7V1.3h-1.4c-0.8,0-1.9,0-2.6,0.1
			c-1.4,0.2-3.5,4-3.9,5.5h-0.3v-6h21.1V7"/>
		<path id="Fill-5" class="st0" d="M71.2,24v-0.2c0.8,0,2.1-0.2,2.5-0.4c0.8-0.3,1-0.8,1-1.6V3.3c0-0.7-0.2-1.4-1-1.7
			c-0.6-0.2-1.8-0.4-2.5-0.4V0.9h19v5.6h-0.3c-0.4-1.5-2.6-4.9-4.2-5.1c-0.8-0.1-2.1-0.2-3.2-0.2h-3.3v10.5h2.8c1.9,0,2.5-0.6,2.9-1
			c0.6-0.6,1.3-2.5,1.4-3.4h0.3v9.5h-0.3c-0.1-1-0.9-3.1-1.4-3.6c-0.4-0.5-1.1-1-2.9-1h-2.8v8.4c0,2.6,0.6,3,3.8,3
			c2.1,0,4.4,0,5.2-0.8c1.2-1.2,3-4.5,3.5-5.6H92L91.6,24L71.2,24"/>
		<path id="Fill-6" class="st0" d="M122.7,24h-11.9v-0.2c0.6,0,2.3-0.2,2.8-0.4c0.8-0.4,1.1-0.9,1.1-1.7V2.8l-8.5,20.8h-0.6
			c-0.3-1-1.2-3.5-1.7-4.7L97.1,3.3v15.3c0,2.6,0.4,3.8,1.1,4.4c0.6,0.5,2.8,0.6,3.4,0.7V24h-9.2v-0.2c0.6-0.1,2.3-0.1,3.1-0.6
			c0.8-0.6,1.1-1.9,1.1-4.5V4.8c0-1.4-0.3-2.3-1-2.9c-0.8-0.6-2.1-0.7-3-0.8V0.9h8.2l7.4,16.6l5.6-13.7c0.5-1.2,0.7-2.5,0.7-2.9h8.2
			v0.2c-0.6,0-1.9,0.2-2.5,0.4c-0.8,0.3-1,0.9-1,1.7v18.4c0,0.7,0.3,1.3,1,1.7c0.4,0.2,1.9,0.4,2.5,0.5L122.7,24"/>
		<path id="Fill-7" class="st0" d="M134.7,13.6h-2.1v8.1c0,0.7,0.2,1.4,1,1.7c0.4,0.2,1.7,0.3,2.6,0.4V24h-11.6v-0.2
			c0.6,0,2.1-0.2,2.5-0.4c0.8-0.3,1-0.9,1-1.7V3.3c0-0.7-0.2-1.4-1-1.7c-0.7-0.3-2-0.4-2.6-0.4V0.9h11.7c4.8,0,7.8,1.9,7.8,5.6
			C144,11.3,139.4,13.6,134.7,13.6L134.7,13.6z M134.3,1.4h-1.8v11.8h1.2c4.3,0,5.2-3.5,5.2-5.8C138.9,4.4,137.9,1.4,134.3,1.4z"/>
		<path id="Fill-8" class="st0" d="M154.2,24.4c-3.4,0-5.7-1.1-6.8-1.8l-1.1,1.7H146l-0.2-8.2h0.3c1.7,4.3,4.1,7.9,8,7.9
			c3.2,0,4.6-2.3,4.6-4.7c0-2-1.3-3.5-3.6-4.4c-1.7-0.7-3.1-1.1-4.6-1.8c-2.7-1.2-4-3.3-4-6.2c0-3.6,3-6.5,7.4-6.5
			c2.7,0,4.9,0.8,6,1.7l1-1.5h0.3l0.1,7.8H161c-1.3-3.9-3.3-7.6-7.2-7.6c-2.1,0-3.9,1.6-3.9,4c0,2,1.1,3.3,3.4,4.4
			c1.5,0.7,3.2,1.1,4.5,1.7c2.8,1.2,4.6,2.8,4.6,6.3C162.4,21.4,159,24.4,154.2,24.4"/>
	</g>
</g>
</svg>
